<?xml version="1.0" encoding="UTF-8" standalone="no"?>
<!-- Created with Inkscape (http://www.inkscape.org/) -->

<svg
   xmlns:dc="http://purl.org/dc/elements/1.1/"
   xmlns:cc="http://creativecommons.org/ns#"
   xmlns:rdf="http://www.w3.org/1999/02/22-rdf-syntax-ns#"
   xmlns:svg="http://www.w3.org/2000/svg"
   xmlns="http://www.w3.org/2000/svg"
   xmlns:sodipodi="http://sodipodi.sourceforge.net/DTD/sodipodi-0.dtd"
   xmlns:inkscape="http://www.inkscape.org/namespaces/inkscape"
   width="224.87495"
   height="241.12498"
   id="svg2"
   version="1.1"
   inkscape:version="0.48.4 r9939"
   sodipodi:docname="New document 1">
  <defs
     id="defs4" />
  <sodipodi:namedview
     id="base"
     pagecolor="#ffffff"
     bordercolor="#666666"
     borderopacity="1.0"
     inkscape:pageopacity="0.0"
     inkscape:pageshadow="2"
     inkscape:zoom="1.4"
     inkscape:cx="29.590931"
     inkscape:cy="82.591083"
     inkscape:document-units="px"
     inkscape:current-layer="layer1"
     showgrid="false"
     fit-margin-top="0"
     fit-margin-left="0"
     fit-margin-right="0"
     fit-margin-bottom="0"
     inkscape:window-width="1215"
     inkscape:window-height="776"
     inkscape:window-x="65"
     inkscape:window-y="24"
     inkscape:window-maximized="1" />
  <metadata
     id="metadata7">
    <rdf:RDF>
      <cc:Work
         rdf:about="">
        <dc:format>image/svg+xml</dc:format>
        <dc:type
           rdf:resource="http://purl.org/dc/dcmitype/StillImage" />
        <dc:title></dc:title>
      </cc:Work>
    </rdf:RDF>
  </metadata>
  <g
     inkscape:label="Layer 1"
     inkscape:groupmode="layer"
     id="layer1"
     transform="translate(-254.96879,-469.09376)">
    <path
       inkscape:connector-curvature="0"
       id="path2990"
       d="m 259.56253,469.09376 c 0,16.15624 0,32.31249 0,48.46873 17.76859,0.76698 36.91155,-2.9295 53.08041,6.41504 14.20588,8.11816 19.52742,24.37432 27.86843,37.48772 2.75666,4.82408 5.51323,9.64817 8.26988,14.47225 -16.94279,24.1139 -33.61329,48.42029 -50.78122,72.37498 -2.39224,4.1158 -6.51206,9.42123 -9.56733,13.99356 -11.15461,15.97089 -22.3093,31.94182 -33.46391,47.9127 18.17702,0 36.35413,0 54.53123,0 21.35417,-29.97916 42.70835,-59.95832 64.06245,-89.93748 17.37504,29.97916 34.75,59.95832 52.12504,89.93748 18.05208,0 36.10416,0 54.15624,0 C 454.48961,665.89579 429.13546,621.5729 403.78124,577.25 c 15.44943,-21.49151 30.89886,-42.98297 46.34822,-64.47447 -8.37987,-14.42519 -16.75973,-28.85033 -25.13959,-43.27552 -15.20496,21.70829 -30.40991,43.41664 -45.61486,65.12498 -10.01885,-18.46548 -21.45209,-36.87488 -39.10593,-48.99919 -16.28987,-12.28829 -36.90332,-17.17753 -57.05985,-16.27978 -7.88228,-0.0841 -15.76449,-0.16814 -23.6467,-0.25221 z"
       style="font-size:72px;font-style:normal;font-variant:normal;font-weight:normal;font-stretch:normal;line-height:125%;letter-spacing:0px;word-spacing:0px;fill:#00ad9c;fill-opacity:1;stroke:none;font-family:Bitstream Charter;-inkscape-font-specification:Bitstream Charter" />
    <path
       style="font-size:72px;font-style:normal;font-variant:normal;font-weight:normal;font-stretch:normal;line-height:125%;letter-spacing:0px;word-spacing:0px;fill:#002b41;fill-opacity:1;stroke:none;font-family:Bitstream Charter;-inkscape-font-specification:Bitstream Charter"
       d="m 255.52192,469.09376 c 0,16.15624 0,32.31249 0,48.46873 17.76859,0.76698 40.95216,-2.9295 57.12102,6.41504 14.20588,8.11816 19.52742,24.37432 27.86843,37.48772 2.75666,4.82408 5.51323,9.64817 8.26988,14.47225 -16.94279,24.1139 -33.61329,48.42029 -50.78122,72.37498 -2.39224,4.1158 -6.51206,9.42123 -9.56733,13.99356 -11.15461,15.97089 -22.3093,31.94182 -33.46391,47.9127 18.17702,0 36.35413,0 54.53123,0 21.35417,-29.97916 42.70835,-59.95832 64.06245,-89.93748 17.37504,29.97916 34.75,59.95832 52.12504,89.93748 18.05208,0 36.10416,0 54.15624,0 C 454.48961,665.89579 429.13546,621.5729 403.78124,577.25 c 0,0 -23.75596,-41.84068 -24.40623,-42.62501 -10.01885,-18.46548 -21.45209,-36.87488 -39.10593,-48.99919 -16.28987,-12.28829 -36.90332,-17.17753 -57.05985,-16.27978 -7.88228,-0.0841 -19.8051,-0.16814 -27.68731,-0.25221 z"
       id="path3787"
       inkscape:connector-curvature="0"
       sodipodi:nodetypes="cccccccccccccccccc" />
  </g>
</svg>
